<svg id="Layer_1" xmlns="http://www.w3.org/2000/svg" viewBox="0 0 104 83.28"><style>.st0{fill-rule:evenodd;clip-rule:evenodd}.st0,.st1{fill:#77777a}</style><path id="XMLID_74_" class="st0" d="M2.29 65.53c-1.2-1.51-1.8-3.4-1.8-5.68 0-1.83.36-3.48 1.07-4.97s1.75-2.74 3.11-3.76l.08.1c-1.14 1.03-2.03 2.29-2.67 3.77-.64 1.49-.96 3.03-.96 4.63 0 2.12.54 3.94 1.61 5.44 1.08 1.5 2.62 2.59 4.64 3.27v.16c-2.19-.47-3.88-1.45-5.08-2.96zm13.36-13.56c.4.45.65 1.13.75 2.05l-.13.1c-.35-.69-.75-1.29-1.21-1.8a8.02 8.02 0 0 0-1.61-1.38l.05-.13c1.04.32 1.75.71 2.15 1.16zm1.55 9.74c.04-.15.1-.3.17-.43.15-.3.43-.51.75-.61.09-.03.19-.05.29-.08.36-.1.54-.27.54-.52 0-.15-.05-.27-.16-.35-.11-.08-.27-.12-.49-.12-.06 0-.42.03-1.09.1-.67.07-1.31.1-1.94.1-.71 0-1.48-.03-2.32-.1-.84-.07-1.32-.1-1.43-.1-.25 0-.42.04-.53.12-.1.08-.15.2-.15.37 0 .27.23.46.68.57.3.06 1.63.33 2.02.88.25.36.38.92.38 1.69 0 .65-.05 1.22-.13 1.71-.09.5-.21.84-.37 1.04-.3.42-.83.77-1.57 1.06s-1.5.44-2.31.44c-1.86 0-3.35-.84-4.47-2.51-1.13-1.68-1.69-3.91-1.69-6.69 0-2.44.56-4.37 1.68-5.8 1.11-1.43 2.62-2.14 4.51-2.14 1.25 0 2.47.39 3.66 1.16 1.19.78 2.04 1.76 2.57 2.95.15.33.28.72.4 1.16.12.43.3.64.55.64.12 0 .2-.03.25-.09.05-.06.07-.22.07-.5-.01-.05-.02-.17-.04-.36-.09-.77-.12-1.49-.12-2.16 0-.46.03-.94.08-1.44s.08-.77.08-.81c0-.23-.02-.39-.07-.47a.24.24 0 0 0-.22-.12c-.14 0-.28.1-.42.32-.14.21-.34.32-.6.32-.09 0-.82-.29-2.22-.88s-2.78-.89-4.15-.89c-2.65 0-4.88 1.02-6.67 3.08C.9 54.3 0 56.85 0 59.9c0 2.67.79 4.83 2.36 6.47 1.57 1.64 3.62 2.47 6.16 2.47 1.03 0 2.17-.18 3.41-.53 1.24-.35 2.51-.87 3.82-1.54.11-.05.26-.12.46-.22.59-.28.88-.59.88-.93 0-.04 0-.17-.01-.37 0-.2-.01-.37-.01-.51v-1.63c-.01-.61.04-1.07.13-1.4zm-2.47-.2c.23.41.34.99.34 1.74 0 .76-.1 1.39-.28 1.88-.19.5-.47.85-.84 1.07l-.05-.13c.18-.31.31-.69.4-1.14.1-.44.14-.94.14-1.49 0-.72-.07-1.31-.22-1.78-.14-.47-.34-.76-.59-.89v-.13c.5.17.86.46 1.1.87z"/><path id="XMLID_68_" class="st0" d="M22.28 59.06c0-1.83.42-3.5 1.27-5.02a9.302 9.302 0 0 1 3.46-3.58c1.46-.87 3.07-1.29 4.85-1.29 1.73 0 3.31.42 4.74 1.27 1.43.84 2.56 2.01 3.38 3.5s1.24 3.15 1.24 4.96c0 1.39-.25 2.7-.74 3.94-.5 1.24-1.18 2.31-2.05 3.2-.87.89-1.88 1.58-3 2.07-1.14.49-2.35.73-3.65.73-1.75 0-3.34-.41-4.78-1.22-1.45-.81-2.59-1.97-3.44-3.45-.86-1.49-1.28-3.19-1.28-5.11zM29.71 68c-1.81-1.13-3.17-2.47-4.08-4.02-.91-1.55-1.36-3.24-1.36-5.09 0-1.4.21-2.63.65-3.69.43-1.06 1-1.97 1.7-2.74.71-.77 1.59-1.56 2.66-2.38-1.41.51-2.59 1.24-3.54 2.17-.94.93-1.65 1.99-2.09 3.19-.45 1.19-.67 2.46-.67 3.79 0 .97.14 1.93.44 2.87.3.95.72 1.79 1.29 2.56.57.76 1.28 1.42 2.11 1.99.82.58 1.79 1.03 2.89 1.35zm-2.24-10.16c0 3.05.44 5.45 1.3 7.18.87 1.74 1.99 2.61 3.37 2.61.7 0 1.35-.3 1.95-.89.6-.59 1.08-1.48 1.43-2.64.36-1.17.54-2.59.54-4.28 0-2.97-.39-5.3-1.17-6.97-.77-1.67-1.85-2.5-3.21-2.5-1.33 0-2.36.62-3.1 1.88-.74 1.25-1.11 3.12-1.11 5.61zm7.4 9.03c1.04-.59 1.85-1.52 2.41-2.78.56-1.28.84-2.84.84-4.68 0-4.55-1.37-7.52-4.11-8.91.98.99 1.68 2.23 2.11 3.69.42 1.47.63 3.42.63 5.89 0 1.56-.16 2.87-.47 3.91a9.42 9.42 0 0 1-1.41 2.88z"/><path id="XMLID_62_" class="st0" d="M66.79 59.06c0-1.83.42-3.5 1.27-5.02a9.257 9.257 0 0 1 3.47-3.58c1.46-.87 3.07-1.29 4.85-1.29 1.73 0 3.31.42 4.74 1.27 1.43.84 2.56 2.01 3.38 3.5s1.24 3.15 1.24 4.96c0 1.39-.25 2.7-.74 3.94-.5 1.24-1.18 2.31-2.05 3.2s-1.88 1.58-3 2.07c-1.14.49-2.35.73-3.65.73-1.75 0-3.34-.41-4.78-1.22-1.45-.81-2.59-1.97-3.44-3.45-.87-1.49-1.29-3.19-1.29-5.11zM74.22 68c-1.81-1.13-3.17-2.47-4.08-4.02s-1.36-3.24-1.36-5.09c0-1.4.21-2.63.65-3.69.43-1.06 1-1.97 1.7-2.74.71-.77 1.59-1.56 2.66-2.38-1.41.51-2.59 1.24-3.54 2.17-.94.93-1.65 1.99-2.09 3.19-.45 1.19-.67 2.46-.67 3.79 0 .97.14 1.93.44 2.87.29.95.72 1.79 1.29 2.56.57.76 1.28 1.42 2.11 1.99.83.58 1.79 1.03 2.89 1.35zm-2.23-10.16c0 3.05.44 5.45 1.3 7.18.87 1.74 1.99 2.61 3.37 2.61.7 0 1.35-.3 1.95-.89.6-.59 1.08-1.48 1.43-2.64.36-1.17.54-2.59.54-4.28 0-2.97-.39-5.3-1.17-6.97-.77-1.67-1.84-2.5-3.21-2.5-1.33 0-2.36.62-3.1 1.88-.74 1.25-1.11 3.12-1.11 5.61zm7.39 9.03c1.05-.59 1.85-1.52 2.41-2.78.56-1.28.84-2.84.84-4.68 0-4.55-1.37-7.52-4.11-8.91.98.99 1.68 2.23 2.11 3.69.42 1.47.64 3.42.64 5.89 0 1.56-.16 2.87-.47 3.91a9.677 9.677 0 0 1-1.42 2.88z"/><path id="XMLID_57_" class="st0" d="M60.48 51.52c-1.86-1.54-4.52-2.31-7.98-2.31-.46 0-1.31.04-2.56.13s-2.27.13-3.07.13c-.54 0-1.11-.04-1.73-.13-.61-.09-.96-.13-1.04-.13-.24 0-.43.06-.57.18-.14.12-.21.27-.21.46 0 .3.25.49.74.57.5.08.86.19 1.09.32.44.24.74.56.91.94s.25 1.01.25 1.89V65c0 .63-.09 1.14-.25 1.52-.17.39-.44.68-.81.89-.1.07-.26.14-.45.23-.53.25-.8.52-.8.81 0 .13.06.25.17.33.11.09.25.13.43.13.02 0 .1 0 .21-.01 1.17-.14 2.51-.22 4.05-.22.44 0 1.05.04 1.83.11.78.08 1.34.12 1.68.12 3.14 0 5.74-1.03 7.8-3.1 2.06-2.07 3.09-4.64 3.09-7.72.01-2.83-.93-5.03-2.78-6.57zM47.39 63.85c0 1.36-.11 2.28-.34 2.76-.22.49-.62.86-1.19 1.12v-.08c.34-.4.59-.83.74-1.3.15-.47.22-1.16.22-2.07V53.21c0-.77-.09-1.36-.28-1.77-.19-.41-.5-.72-.94-.95v-.12c.64.17 1.1.49 1.37.95.27.46.41 1.16.41 2.09l.01 10.44zm2.85 2.99c-.44-.49-.66-1.57-.66-3.25V53.03c0-1.1.17-1.81.52-2.13.35-.31 1.04-.47 2.08-.47 2.26 0 4.11.82 5.53 2.47 1.42 1.65 2.13 3.77 2.13 6.37 0 2.52-.66 4.54-1.97 6.04s-3.06 2.26-5.23 2.26c-1.15 0-1.95-.24-2.4-.73zm9.84-3.15c-.64 1.28-1.61 2.32-2.92 3.12l-.07-.11c1.04-.79 1.83-1.82 2.38-3.09.55-1.28.83-2.7.83-4.29 0-2.21-.5-4.13-1.48-5.77s-2.3-2.76-3.95-3.33l.02-.14c1.83.45 3.31 1.49 4.44 3.14s1.69 3.6 1.69 5.84c.01 1.82-.3 3.36-.94 4.63z"/><path id="XMLID_53_" class="st0" d="M103.85 49.33c-.1-.08-.23-.11-.4-.11-.33 0-.69.02-1.09.08-.4.05-.64.07-.7.07h-.08c-.2.02-.38.03-.57.03-.76 0-1.56-.04-2.42-.13-.24-.03-.39-.04-.45-.04-.21 0-.37.04-.47.12-.1.08-.15.2-.15.38 0 .3.23.49.7.57.31.06.55.11.73.18.41.07.72.22.91.45.2.23.29.56.29.97 0 .23-.16.67-.48 1.29l-.07.12-2.58 4.87c-.06.12-.12.21-.18.27-.06.05-.11.08-.17.08-.05 0-.1-.02-.16-.08a.865.865 0 0 1-.15-.2l-3.03-5.92c-.12-.22-.22-.44-.29-.64-.07-.2-.1-.37-.1-.5 0-.41.25-.72.76-.91.51-.19.77-.4.77-.62 0-.17-.04-.29-.12-.35-.09-.06-.26-.1-.53-.1-.05 0-.2.01-.42.04-.93.09-1.82.13-2.67.13-1.02 0-2.05-.05-3.07-.15-.2-.01-.32-.03-.37-.03-.27 0-.46.04-.57.11-.1.07-.16.2-.16.37 0 .3.26.5.78.61.28.05.49.11.62.16.28.14.57.4.89.75.3.36.58.78.82 1.25l3.93 7.43c.01.04.03.07.05.11.22.4.33.83.33 1.26v3.17c0 .99-.08 1.66-.23 2.02s-.44.65-.85.87c-.24.14-.63.28-1.19.4-.56.12-.83.33-.83.64 0 .18.07.31.2.41.13.1.32.14.57.14.22 0 .82-.04 1.8-.12.98-.08 1.84-.11 2.57-.11.68 0 1.44.04 2.29.11.85.08 1.35.12 1.49.12.23 0 .4-.05.51-.15s.16-.25.16-.46c0-.35-.33-.57-.99-.66-.66-.09-1.1-.2-1.31-.32-.33-.25-.56-.58-.69-.99-.13-.41-.2-1.13-.2-2.18V60.8c0-.32.02-.56.07-.74.04-.18.12-.37.22-.57l3.93-7.4c.26-.5.52-.89.81-1.18.41-.37 1.02-.61 1.19-.69.31-.14.46-.34.46-.59.03-.11-.01-.22-.11-.3zm-8.46 14.59c0 1.36-.11 2.25-.33 2.68-.22.43-.62.75-1.21.96l-.05-.11c.34-.27.57-.6.71-1s.2-1.05.2-1.97v-1.22c0-.99-.06-1.76-.17-2.29s-.3-1.06-.57-1.58l-3.93-7.64c-.08-.16-.22-.37-.44-.63-.21-.26-.44-.5-.69-.71l.05-.06c.43.14.8.34 1.12.62.32.28.58.61.79 1l3.31 6.42c.04.08.11.2.21.38.66 1.17.99 2.67.99 4.49l.01.66zm5.69-11.94c-.12.28-.29.53-.5.77l-.13-.04c.08-.23.14-.44.18-.62.04-.18.06-.35.06-.5 0-.31-.09-.57-.25-.79-.17-.22-.42-.41-.76-.56l.05-.11c.5.01.87.12 1.13.31.26.19.39.46.39.8.01.21-.05.46-.17.74z"/><g><path class="st1" d="M10.21 79.12l.26.72c.35.99.79 2.16.92 2.48.21.52.35.59.57.65.11.03.17.07.17.11 0 .04-.06.1-.21.1-.16 0-.64-.02-.84-.02-.21 0-.46.01-.63.01-.13 0-.2-.04-.2-.1 0-.03.04-.09.17-.11.26-.06.27-.17.26-.27-.01-.17-.15-.53-.3-.94 0-.02-.08-.1-.15-.1-.68 0-.99.01-1.08.02-.02 0-.06.04-.07.07-.2.51-.28.8-.28.93s.07.22.3.28c.13.03.19.07.19.13 0 .05-.09.09-.19.09-.11 0-.28-.01-.51-.01-.25 0-.54.02-.64.02-.15 0-.19-.04-.19-.08s.02-.09.16-.13c.33-.09.4-.19.59-.57.15-.31.85-2.14 1.11-2.76.01-.02.04-.1.04-.13 0-.02.02-.05.05-.09.06-.09.24-.29.29-.36.04-.06.09-.09.11-.09s.05.02.1.15zm.01 2.17c-.1-.3-.38-1.08-.47-1.29-.01-.04-.05-.03-.07.02-.11.31-.42 1.12-.46 1.27 0 .03.02.06.04.06.25 0 .72-.01.93-.01.01 0 .04-.02.03-.05zM15.18 79.08c.02 0 .08.1.09.13 0 .09.07.58.07.6 0 .1-.02.16-.06.16-.05 0-.15-.06-.19-.15-.06-.21-.2-.39-.28-.46a.726.726 0 0 0-.51-.18c-.3 0-.66.25-.66.67 0 .38.28.59.86.95.79.48.94.89.94 1.29 0 .33-.19.72-.57.94-.22.13-.59.23-.9.23-.38 0-.66-.06-.92-.17-.05-.02-.17-.16-.17-.19-.05-.22-.11-.5-.11-.69 0-.04.07-.13.1-.13.05 0 .15.15.25.35.19.39.57.59.89.59.3 0 .67-.23.67-.64 0-.27-.13-.53-.72-.91-.66-.43-1.01-.79-1.01-1.36 0-.37.19-.68.39-.84.21-.18.51-.31 1.02-.31.3.01.65.09.82.12zM18.53 79.08c.21 0 .48-.02.57-.04.02 0 .07.04.08.09v.69c0 .09-.04.18-.1.18-.06 0-.11-.1-.12-.16-.09-.36-.26-.46-.41-.48-.12-.02-.4-.04-.89-.04-.02 0-.08.02-.09.18-.01.16-.03 1.05-.02 1.41 0 .02.02.07.06.07h.51c.46 0 .44-.02.57-.31.04-.1.09-.17.14-.17.05 0 .07.11.06.18-.01.18-.02.3-.02.44 0 .17.01.28.02.44 0 .11-.03.19-.09.19-.05 0-.1-.08-.12-.14-.09-.28-.17-.33-.42-.35-.2-.02-.44-.02-.64-.02-.02 0-.09.06-.09.08-.02.18-.02.68-.01.89 0 .15 0 .39.02.53.02.06.08.14.14.15.1.02.3.04.52.04.19 0 .43 0 .59-.06.19-.07.37-.22.51-.48.09-.17.15-.22.2-.22.07 0 .06.13.05.19 0 .05-.19.64-.24.75-.02.04-.12.09-.15.09-.07 0-1.66-.03-2.14-.03-.43 0-.5.03-.73.03-.12 0-.22-.02-.22-.09 0-.06.09-.1.19-.13.33-.08.41-.14.44-.49.02-.27.05-.76.05-1.56v-1.24c-.01-.23-.07-.36-.34-.41-.13-.02-.2-.05-.2-.11s.11-.1.2-.1c.3 0 .83.02 1.16.02l.96-.01zM22.75 79.08c.02 0 .08.1.09.13 0 .09.06.58.06.6 0 .1-.02.16-.06.16-.05 0-.15-.06-.19-.15-.07-.21-.2-.39-.28-.46a.726.726 0 0 0-.51-.18c-.3 0-.66.25-.66.67 0 .38.28.59.86.95.79.48.94.89.94 1.29 0 .33-.19.72-.57.94-.22.13-.59.23-.9.23-.38 0-.66-.06-.92-.17-.05-.02-.17-.16-.17-.19-.05-.22-.11-.5-.11-.69 0-.04.07-.13.1-.13.05 0 .15.15.25.35.19.39.57.59.89.59.3 0 .67-.23.67-.64 0-.27-.13-.53-.72-.91-.66-.43-1.01-.79-1.01-1.36 0-.37.19-.68.39-.84.21-.18.51-.31 1.02-.31.32.01.66.09.83.12zM28.3 81.05c0 .84-.36 1.39-.81 1.75-.37.28-.91.46-1.41.46-.68 0-1.27-.26-1.67-.69-.35-.37-.55-.88-.55-1.47 0-.79.35-1.29.83-1.67.29-.22.83-.46 1.37-.46 1.42 0 2.24 1.06 2.24 2.08zm-3.12-1.52c-.22.21-.45.68-.45 1.44 0 .99.6 2.06 1.54 2.06.35 0 .57-.18.66-.26.27-.27.5-.82.5-1.51 0-.51-.2-1.28-.67-1.71-.22-.19-.57-.35-.85-.35-.29 0-.58.18-.73.33zM31.79 80.92c-.02.02-.16.09-.25.13-.03.01-.02.07-.01.09.12.26.65 1.14.97 1.51.17.2.36.28.55.32.07.01.11.07.11.09 0 .04-.06.09-.1.1-.1.04-.35.05-.43.05-.59 0-.83-.23-.97-.42-.18-.24-.51-.77-.78-1.23-.06-.1-.15-.24-.2-.27-.04-.04-.19-.09-.31-.09-.02 0-.06.03-.07.07-.01.13 0 .98.02 1.28.02.28.06.34.36.42.11.03.15.08.15.12 0 .07-.12.1-.2.1-.22 0-.51-.04-.82-.04-.22 0-.55.02-.62.02-.16 0-.2-.04-.2-.1 0-.04.07-.08.15-.1.3-.09.37-.17.39-.37.04-.5.04-1.03.04-1.58 0-.69-.01-1.23-.03-1.41-.01-.15-.07-.25-.37-.32-.1-.03-.17-.08-.17-.13 0-.04.08-.09.19-.09h.47c.24 0 .77-.03 1.12-.03.3 0 .81.02 1.12.28.2.16.35.47.35.77 0 .35-.17.6-.46.83zm-.62-1.43a.754.754 0 0 0-.52-.22c-.02 0-.19.02-.24.04-.03.02-.07.1-.08.13-.02.22-.04 1.34-.02 1.51 0 .04.05.08.09.08.33 0 .62-.1.69-.14.17-.13.36-.36.36-.72 0-.17-.06-.46-.28-.68zM36.16 79.08c.21 0 .48-.02.57-.04.02 0 .07.04.08.09v.69c0 .09-.04.18-.1.18-.06 0-.11-.1-.12-.16-.09-.36-.26-.46-.41-.48-.12-.02-.4-.04-.89-.04-.02 0-.08.02-.09.18-.01.16-.03 1.05-.02 1.41 0 .02.02.07.06.07h.51c.46 0 .44-.02.57-.31.04-.1.09-.17.14-.17.05 0 .07.11.06.18-.01.18-.02.3-.02.44 0 .17.01.28.02.44 0 .11-.03.19-.09.19s-.1-.08-.12-.14c-.09-.28-.17-.33-.42-.35-.2-.02-.44-.02-.64-.02-.02 0-.09.06-.09.08-.02.18-.02.68-.01.89 0 .15 0 .39.02.53.02.06.08.14.14.15.1.02.3.04.52.04.19 0 .43 0 .59-.06.19-.07.37-.22.51-.48.09-.17.15-.22.2-.22.06 0 .06.13.05.19 0 .05-.19.64-.24.75-.02.04-.12.09-.15.09-.07 0-1.66-.03-2.14-.03-.43 0-.5.03-.73.03-.12 0-.22-.02-.22-.09 0-.06.09-.1.19-.13.33-.08.41-.14.44-.49.02-.27.05-.76.05-1.56v-1.24c-.01-.23-.06-.36-.34-.41-.13-.02-.2-.05-.2-.11s.11-.1.2-.1c.3 0 .83.02 1.16.02l.96-.01zM40.38 79.08c.02 0 .08.1.09.13 0 .09.06.58.06.6 0 .1-.02.16-.06.16-.05 0-.15-.06-.19-.15-.07-.21-.2-.39-.28-.46a.726.726 0 0 0-.51-.18c-.3 0-.66.25-.66.67 0 .38.28.59.86.95.79.48.94.89.94 1.29 0 .33-.19.72-.57.94-.22.13-.59.23-.9.23-.38 0-.66-.06-.92-.17-.05-.02-.17-.16-.17-.19-.05-.22-.11-.5-.11-.69 0-.04.07-.13.1-.13.05 0 .15.15.25.35.19.39.57.59.89.59.3 0 .67-.23.67-.64 0-.27-.13-.53-.72-.91-.66-.43-1.01-.79-1.01-1.36 0-.37.19-.68.39-.84.21-.18.51-.31 1.02-.31.32.01.66.09.83.12zM43.59 79.76c-.02-.31-.02-.4-.33-.48-.15-.04-.19-.09-.19-.13 0-.05.09-.09.2-.09.19 0 .52.02.73.02.31 0 .54-.02.77-.02.11 0 .2.02.2.09 0 .06-.09.11-.2.13-.32.06-.34.22-.35.39-.02.16-.02.39-.02 1.49 0 .78 0 1.05.02 1.25.02.38.06.46.42.55.11.02.18.07.18.13s-.12.09-.2.09c-.26 0-.69-.04-.96-.03-.19 0-.38.02-.62.02-.15 0-.2-.04-.2-.11 0-.04.06-.09.19-.12.3-.07.34-.2.35-.48.02-.24.03-.9.03-1.45 0-.33 0-1-.02-1.25zM45.95 79.06c.14 0 .65.02.98.02.03 0 .12.06.14.09l.54.62c.31.39 1.58 1.69 1.91 2.05.03.03.06-.02.06-.04.03-.19.01-.91.01-1.45 0-.22-.02-.52-.04-.69-.01-.13-.08-.28-.4-.36-.13-.03-.21-.07-.21-.15 0-.04.07-.08.19-.08h.44c.31 0 .57-.03.74-.03.11 0 .15.04.15.09 0 .04-.04.1-.16.13-.33.11-.37.22-.4.48-.02.23-.06 1.86-.06 2.4 0 .27.04.83.04 1 0 .06-.07.12-.1.12-.13 0-.29-.17-.35-.24a9.69 9.69 0 0 0-.42-.52c-.6-.74-1.65-1.84-2.22-2.52-.03-.04-.07.01-.07.03-.01.17-.02.32-.03.83 0 .89-.02 1.38.01 1.69.02.2.1.31.4.41.13.04.18.09.18.12 0 .07-.09.1-.21.1-.19 0-.33-.02-.56-.02-.14 0-.5.02-.61.02-.09 0-.17-.03-.17-.09 0-.07.08-.1.14-.11.3-.09.45-.14.47-.62.03-.72.11-1.95.11-2.41 0-.26-.02-.33-.04-.36-.11-.14-.16-.23-.5-.31-.07-.01-.17-.07-.17-.11.02-.05.1-.09.21-.09zM51.43 79.06c.4 0 .53.02 1.04.02.01 0 .07.06.07.09.06.19.11.31.24.58.32.66.92 1.93 1.05 2.09.01.01.05.02.06.02.15-.27.87-1.68 1.07-2.18.03-.08.15-.36.19-.5 0-.02.06-.1.08-.1.45 0 .96-.02 1.02-.02.08 0 .17.02.17.08s-.07.1-.19.12c-.1.02-.19.06-.29.11-.11.05-.15.19-.15.51 0 1.08.04 2.35.08 2.67.03.21.09.32.41.4.11.02.17.09.17.13 0 .07-.1.1-.19.1-.07 0-.68-.03-.9-.03-.11 0-.46.02-.61.02-.1 0-.19-.02-.19-.09 0-.06.09-.11.18-.13.26-.06.28-.26.3-.52.02-.31.04-1.97.03-2.29 0-.07-.04-.1-.07-.04-.2.42-.75 1.56-.93 1.98-.17.37-.3.71-.39.92-.08.19-.15.2-.18.2s-.09-.07-.12-.14c-.03-.1-.11-.35-.24-.66-.33-.82-.89-2.02-1.01-2.26-.02-.04-.04-.02-.04.02-.05.43-.11 1.55-.1 2.24 0 .37.06.45.39.55.13.04.19.09.19.14 0 .05-.08.09-.19.09-.19 0-.44-.02-.59-.02-.15 0-.42.02-.57.02-.1 0-.2-.01-.2-.09 0-.04.06-.09.17-.12.35-.12.42-.2.48-.66.06-.49.2-2.02.21-2.59 0-.09-.01-.33-.24-.39l-.26-.08c-.04-.01-.13-.06-.13-.11s.04-.08.18-.08zM61.53 81.05c0 .84-.36 1.39-.81 1.75-.37.28-.91.46-1.41.46-.68 0-1.27-.26-1.67-.69-.35-.37-.55-.88-.55-1.47 0-.79.35-1.29.83-1.67.29-.22.83-.46 1.37-.46 1.42 0 2.24 1.06 2.24 2.08zm-3.12-1.52c-.22.21-.45.68-.45 1.44 0 .99.6 2.06 1.54 2.06.35 0 .57-.18.66-.26.27-.27.5-.82.5-1.51 0-.51-.2-1.28-.67-1.71-.22-.19-.57-.35-.85-.35-.3 0-.59.18-.73.33zM64.92 80.84c-.02 0-.01.06 0 .06.44.19.77.51.77 1.06 0 .42-.24.72-.55.93-.31.22-.89.28-1.15.28-.18 0-.89-.01-1.18-.02h-.49c-.11 0-.2-.04-.2-.1 0-.06.11-.1.18-.11.39-.08.42-.17.44-.39.01-.13.05-.78.05-2.05 0-.55-.02-.88-.04-.96-.03-.14-.07-.19-.4-.26-.09-.01-.17-.05-.17-.12 0-.05.1-.09.18-.09h.42c.2 0 .99-.04 1.25-.04.37 0 .73.07.92.19.31.19.45.48.45.79.03.5-.31.71-.48.83zm-1.07-1.57c-.04 0-.15.02-.22.04-.01 0-.05.07-.06.1-.01.1-.02.29-.02 1.37 0 .03.03.09.07.09.23 0 .6-.04.75-.15.2-.14.31-.36.31-.61 0-.55-.37-.84-.83-.84zm.53 1.91c-.15-.09-.33-.12-.55-.12-.09 0-.2.02-.22.04-.02.02-.05.05-.05.3 0 .17.01.94.02 1.13 0 .05.04.15.09.2.11.11.29.22.4.22.41 0 .79-.41.79-.94a.967.967 0 0 0-.48-.83zM66.96 79.76c-.02-.31-.02-.4-.33-.48-.15-.04-.19-.09-.19-.13 0-.05.09-.09.2-.09.19 0 .52.02.73.02.31 0 .54-.02.77-.02.11 0 .2.02.2.09 0 .06-.09.11-.2.13-.32.06-.34.22-.35.39-.02.16-.02.39-.02 1.49 0 .78 0 1.05.02 1.25.02.38.06.46.42.55.11.02.18.07.18.13s-.12.09-.2.09c-.26 0-.69-.04-.96-.03-.19 0-.38.02-.62.02-.15 0-.2-.04-.2-.11 0-.04.06-.09.19-.12.3-.07.34-.2.35-.48.02-.24.03-.9.03-1.45 0-.33 0-1-.02-1.25zM69.43 79.07c.17 0 .46.01.64.01.25 0 .69-.02.85-.02.15 0 .2.03.2.08 0 .06-.08.1-.14.12-.35.09-.4.18-.4.26-.04.32-.04.97-.04 1.92 0 .44 0 .97.03 1.19.01.15.2.24.23.25.12.02.35.03.53.03.14 0 .35 0 .46-.03.06-.01.13-.02.2-.09.09-.09.24-.23.4-.5.06-.09.13-.13.17-.13s.05.07.02.17c-.07.22-.17.58-.2.76-.01.04-.12.11-.15.11-.1 0-.67-.04-1.97-.04-.31 0-.75.04-.95.04-.11 0-.19-.02-.19-.09 0-.04.06-.1.16-.12.35-.07.41-.18.44-.46.01-.16.03-.83.03-1.76v-1.09c0-.22-.04-.32-.33-.39-.12-.03-.18-.08-.18-.12-.01-.07.07-.1.19-.1zM73.81 79.76c-.02-.31-.02-.4-.33-.48-.15-.04-.19-.09-.19-.13 0-.05.09-.09.2-.09.19 0 .52.02.73.02.31 0 .54-.02.77-.02.11 0 .2.02.2.09 0 .06-.09.11-.2.13-.32.06-.34.22-.35.39-.02.16-.02.39-.02 1.49 0 .78 0 1.05.02 1.25.02.38.06.46.42.55.11.02.18.07.18.13s-.12.09-.2.09c-.26 0-.69-.04-.96-.03-.19 0-.38.02-.62.02-.15 0-.2-.04-.2-.11 0-.04.06-.09.19-.12.3-.07.34-.2.35-.48.02-.24.03-.9.03-1.45 0-.33 0-1-.02-1.25zM78.33 79.12l.26.72c.35.99.79 2.16.92 2.48.21.52.35.59.57.65.11.03.17.07.17.11 0 .04-.06.1-.21.1-.16 0-.64-.02-.84-.02-.21 0-.46.01-.63.01-.13 0-.2-.04-.2-.1 0-.03.04-.09.17-.11.26-.06.27-.17.26-.27-.01-.17-.15-.53-.3-.94 0-.02-.08-.1-.15-.1-.68 0-.99.01-1.08.02-.02 0-.06.04-.07.07-.2.51-.28.8-.28.93s.07.22.3.28c.13.03.19.07.19.13 0 .05-.09.09-.19.09-.11 0-.28-.01-.51-.01-.25 0-.54.02-.64.02-.15 0-.19-.04-.19-.08s.02-.09.16-.13c.33-.09.4-.19.59-.57.15-.31.85-2.14 1.11-2.76.01-.02.04-.1.04-.13 0-.02.02-.05.05-.09.06-.09.24-.29.29-.36.04-.06.09-.09.11-.09.02 0 .05.02.1.15zm.02 2.17c-.1-.3-.38-1.08-.47-1.29-.01-.04-.05-.03-.07.02-.11.31-.42 1.12-.46 1.27 0 .03.02.06.04.06.25 0 .72-.01.93-.01 0 0 .03-.02.03-.05zM83.76 80.92c-.02.02-.16.09-.25.13-.03.01-.02.07-.01.09.12.26.65 1.14.97 1.51.17.2.36.28.55.32.06.01.11.07.11.09 0 .04-.06.09-.1.1-.1.04-.35.05-.43.05-.59 0-.83-.23-.97-.42-.18-.24-.51-.77-.78-1.23-.06-.1-.15-.24-.2-.27-.04-.04-.19-.09-.31-.09-.02 0-.06.03-.07.07-.01.13 0 .98.02 1.28.02.28.06.34.36.42.11.03.15.08.15.12 0 .07-.12.1-.2.1-.22 0-.51-.04-.82-.04-.22 0-.55.02-.62.02-.16 0-.2-.04-.2-.1 0-.04.07-.08.15-.1.3-.09.37-.17.39-.37.04-.5.04-1.03.04-1.58 0-.69-.01-1.23-.03-1.41-.01-.15-.07-.25-.37-.32-.09-.02-.16-.07-.16-.12 0-.04.08-.09.19-.09h.47c.24 0 .77-.03 1.12-.03.3 0 .81.02 1.12.28.2.16.35.47.35.77-.02.34-.19.59-.47.82zm-.63-1.43a.754.754 0 0 0-.52-.22c-.02 0-.19.02-.24.04-.03.02-.07.1-.08.13-.02.22-.04 1.34-.02 1.51 0 .04.05.08.09.08.33 0 .62-.1.69-.14.17-.13.36-.36.36-.72 0-.17-.06-.46-.28-.68zM86.27 79.76c-.02-.31-.02-.4-.33-.48-.15-.04-.19-.09-.19-.13 0-.05.09-.09.2-.09.19 0 .52.02.73.02.31 0 .54-.02.77-.02.11 0 .2.02.2.09 0 .06-.09.11-.2.13-.32.06-.34.22-.35.39-.02.16-.02.39-.02 1.49 0 .78 0 1.05.02 1.25.02.38.06.46.42.55.11.02.18.07.18.13s-.12.09-.2.09c-.26 0-.69-.04-.96-.03-.19 0-.38.02-.62.02-.15 0-.2-.04-.2-.11 0-.04.06-.09.19-.12.3-.07.34-.2.35-.48.02-.24.03-.9.03-1.45 0-.33 0-1-.02-1.25zM92.77 81.05c0 .84-.36 1.39-.81 1.75-.37.28-.91.46-1.41.46-.68 0-1.27-.26-1.67-.69-.35-.37-.55-.88-.55-1.47 0-.79.35-1.29.83-1.67.29-.22.83-.46 1.37-.46 1.42 0 2.24 1.06 2.24 2.08zm-3.12-1.52c-.22.21-.45.68-.45 1.44 0 .99.6 2.06 1.54 2.06.35 0 .57-.18.66-.26.27-.27.5-.82.5-1.51 0-.51-.2-1.28-.67-1.71-.22-.19-.57-.35-.85-.35-.29 0-.58.18-.73.33zM95.98 79.08c.02 0 .08.1.09.13 0 .09.07.58.07.6 0 .1-.02.16-.06.16-.05 0-.15-.06-.19-.15-.06-.21-.2-.39-.28-.46a.726.726 0 0 0-.51-.18c-.3 0-.66.25-.66.67 0 .38.28.59.86.95.79.48.94.89.94 1.29 0 .33-.19.72-.57.94-.22.13-.59.23-.9.23-.38 0-.66-.06-.92-.17-.05-.02-.17-.16-.17-.19-.05-.22-.11-.5-.11-.69 0-.04.07-.13.1-.13.05 0 .15.15.25.35.19.39.57.59.89.59.3 0 .67-.23.67-.64 0-.27-.13-.53-.72-.91-.66-.43-1.01-.79-1.01-1.36 0-.37.19-.68.39-.84.21-.18.51-.31 1.02-.31.32.01.65.09.82.12z"/></g><path class="st1" d="M77.4 28.18c-.37-.34-.77-.69-1.26-.78-.57-.34-.11-1.01-.63-1.38-.69-.42-1.53-.56-2.03-1.31-.44-.56-1.19-.63-1.78-.93-.26-.08-.52-.21-.77-.36-.25-.18-.61-.28-.66-.65-.03-.28.12-.56.39-.64.57-.06.92.17 1.61.34.44-.04 1.02-.07 1.37-.48.3-.44.94-.17 1.23-.56.24-.3.48-.5.5-.92-.01-1.1-1.05-.77-.82-1.54.24-.49.18-.57.14-.77-.3-.75-1.28-.11-1.65-.81-.23-.56-.01-1.15-1.15-1.49-1.05-.23-1-.71-1.62-.87-.5-.13-1.03-.26-1.33-.79-.09-.2.01-.43.22-.5.35-.12.79-.22.96-.62.21-.33.2-.7.06-1.06-.11-.21-.4-.2-.55-.62.02-.34.05-1.04-1.15-.92-.22.01-.38.21-.55.34-.56.17-.96-.51-1.51-.2-.78.35-1.89-.5-1.09-1.32.59-.31.53-.31.9-.47.21-.19.53-.28.74-.51.84-.89.12-1.39-.14-1.55-.5-.23-.61.05-.99-.22-.37-.3-.34-.37-.35-.64.01-.38.03-.83-.33-1.1-.35-.25-.94-.25-1.09-.67-.28-.23-.54-.61-.96-.56-.41.1-.73.39-1.14.44-.69.32-1.39-.27-2.05.18-.86.81-1.49.49-1.68 0-.07-.5-.17-1.01-.41-1.46-.17-.21-.32-.86-2.38-1.27-.8-.34-.32-.54-1.31-.92-.83-.2-1.14.18-1.7-.03-.65-.34-1.41-.55-2.16-.25-.87.05-1.85-.77-2.5.17-.64.61-1.34.5-2 .56-.3.14-.65.15-.9.42-.26.29-.47.62-.57.98-.2.5-.73.17-.99.5-.31.28-.44.7-.38 1.06.08.43.19.66-.31 1.26-.19 1.02.71.85.39 1.72-.48.61-1.4-.54-1.68.45.02.27.15.51.36.68.32.33 1.17.01 1.09.73-.09.33-.48.16-.69.2-.73-.1-1.32-.7-2.09-.52-.48-.1-.81.4-1.29.42-.59.1-.88-.41-1.78.29-.38.53-.6 1.21-.46 1.91.03.88-1.05 1.13-1.09 1.96.01.43.29.79.04 1.29-.35.53-.85.89-1.33 1.22-.49.32-.71.45-1.13.75-.71.67-1.97 1.23-.82 3.4.51 1.02-1.06.61-1.01 1.68.01.41.38.69.71.84.23.15 1.78.86-.69 1.43-.33.08-.74.1-.9.5-.27.47-.38 1.05-.82 1.38-.33.28-.8.43-.99.87-.21.74.55 2.03-.65 2.08-.39.01-.86.23-1.02.68-.01.19.02.4-.02.59-.31.24-.78.52-.69.99.18.81.71.39.38 1.18-.23.4-.34 1.05-.06 1.46.3.5.57.33.87.2.6-.31 1.09-.65 1.6-.26.48.61 1.07.48 1.89.16.76-.41 1.09-1.19 1.94-.95 1.68-.16.82-1.18 1.78-.96.12.17.2.41.41.45.62.18.91-.92 1.49-.33.29.33.8.29 1.21.22.79-.27 1.34-.96 2.24-.92.5-.06.76-.12 1.15-.28.66-.21.93-.95 1.86-.9 1.82.14 1.12.49 2.58.9 2.52.13 3.15.19 3.31 1.43-.14.84-1.39 1.69-.41 2.52.09.55.02 1.17-.41 1.57-.41.67-1.14 1.12-1.8 1.46-.33.09-.66.17-.94.37-.39-.02-.61.38-.98.42-.6.22-1.39.01-1.92.42-.01.03-.61.18-.91.21-2.07.21-4.18.25-6.29.47-.09.01-.22.05-.25.24-.02.19.1.21.19.2 1.89-.13 3.81-.11 5.74-.21.11 0 .22 0 .34.01.47.01.95.03 1.44.02.38.03.76.07 1.14.12.43.06.88.1 1.33.1.45 0 .9-.04 1.35-.11.42-.07.84-.15 1.26-.25-.11.11-.22.23-.33.35-.24.28-.45.55-.68.79-.8.86-1.8 1.58-2.93 1.9-.93.17-1.88.22-2.84.2-.09 0-.21.02-.26.21-.05.18.07.22.15.22.99.07 2 .06 3-.08s2-.42 2.91-.93c.11-.06.23-.13.33-.2.11-.07.22-.14.32-.22.21-.15.42-.32.6-.5.17-.15.32-.3.48-.42.14-.07.27-.17.39-.28.07-.04.14-.09.22-.12.23-.11.5-.19.77-.24.75.05.95.46 1.44.48.11.06.22.11.33.16.34.13.66.21.97.29.38.09.87.03 1.17.14.09.07.18.15.26.23.11.05.09.24.21.27.34.29.76.6 1.09 1.07.19.27.4.53.66.77.26.23.87.41 1.16.42.35.01.3-.18-.13-.35-.49-.19-.81-.59-1.09-1.08-.3-.5-.55-1.1-1.08-1.63-.27-.26-.59-.46-.9-.6-.16-.07-.31-.13-.46-.19-.07-.1-.11-.2-.14-.35.02-.1.05-.18.1-.23.08-.01.15-.01.23-.01.23 0 .46.01.69.06.23.09.46.18.63.22.2.15.42.26.66.31.13.09.27.19.39.3.34.3.68.66 1.12.93.01 0 .02.01.04.01.16.13.32.25.5.37.4.26.83.47 1.26.64.88.34 1.78.52 2.67.7.08.01.2.01.27-.16s-.02-.23-.1-.24c-.87-.2-1.73-.42-2.53-.76-.4-.17-.78-.37-1.13-.61s-.66-.52-.98-.84-.65-.64-1.02-.93c-.06-.05-.12-.09-.18-.14.03.01.06.01.09.02.17.05.35.13.55.21.8.33 1.65.54 2.49.67.85.12 1.69.17 2.54.17.66-.01 1.32-.04 1.98-.1.27 0 .54-.01.8-.01 1.24.01 2.54.29 3.87.2.11 0 .29-.06.31-.24.03-.19-.12-.21-.22-.2-.62.03-1.24-.01-1.88-.09-.63-.07-1.26-.17-1.92-.21-1.3-.02-2.56-.02-3.79-.22-.3-.05-.6-.1-.89-.18-.02-.02-.05-.04-.08-.07-.34-.32-.68-.21-1.23-.5-.52-.2-.83-.47-1.51-.76-.49-.24-.97-.51-1.45-.82-.68-.59-.17-.74-.6-1.31-.1-.31-.52-.35-.55-.7.1-.82.2-1.71-.02-2.48.2-.41.08-1.08.66-1.2.78-.02 1.37-.43 2.02-.84.32-.48.99-.34 1.43-.64.39.07.66.41 1.01.56.37.09.87-.1 1.06.36.25.3.53.63.91.68.63.02 1.36-.43 1.92.06.38.1.55-.27.82-.4.26-.49.86-.14 1.23-.08.61.15 1.11.69 1.61 1.09.58.27 1.24.36 1.84.06.42-.03.56-.55 1.02-.5.57-.02.86.49 1.67.02.65-.12 1.21-.23 1.72.09.9.32 2.01.71 2.91.19 2.71-2.04 1.59-4.03 1.24-4.34zm-38.21-1.32c-.06-.25.17-.23.28-.3.42-.14 1.04-.38 1.43 0 .11.13.23.28.13.45-.15.43-.59.35-.93.4-.39-.09-.45 0-.91-.55zm3.1 1.04c-.08.33-.38.56-.69.64-.34.01-.81.14-1.06-.16-.04-.09-.04-.2.06-.26.49-.1.9-.4 1.18-.87.16-.06.4-.38.55-.06.06.25-.04.48-.04.71zm9.12-6.14c.15.22-.13.42-.23.61-.16.44.41.66.25 1.12-.02.2-.24.29-.39.38-.44.01-.83-.19-1.06-.56-.2-.52-.2-1.04.24-1.46.46-.21.75-.4 1.19-.09zm-4.06-2.7c.34-.18.72-.33 1.13-.22.41.15.72.59.74 1.04.14.59.73.03.9.79-.04.36-.09.55-.8.79-.51.04-.83-.02-1.15-.42-.38-.36-.84-.19-1.17-1.14.01-.54.1-.68.35-.84zm-.7 3.29c.6-.33 1.24.13 1.86.16.34.07.46.47.66.7.14.3.07 1.33-.52.79-.46-.38-.86-.49-1.39-.52-.29 0-.4-.15-.67-.59-.1-.18-.14-.39.06-.54zm-3.24-.59c.58-.23 1.32-.11 1.75.33.23.51-.55.44-.78.68-.2.26-.24.71-.64.64-.4-.3-.69-.79-.66-1.29.09-.21.19-.29.33-.36zm4.35 6.9c-.14.45-.63.37-.96.4-.69-.02-1.09-.83-1.65-1.12-.49-.4-1.29-.1-1.64-.79-.1-.14-.05-.33.06-.45.31-.27.73-.33 1.09-.36.69.06 1.16.09 1.54.39.27.23.04.62.22.88.33.3.98.07 1.26.53.04.16.18.32.08.52zm4.52-.33c-1.03.36-.98-.23-1.39-.42-.3-.38-.82-.2-1.18-.42-.41-.21-.8-.54-.74-1.07-.2-.47-1.18-.33-1.12-1.04.11-.34.43-.36.79-.34.27.04 1.29.06 1.35.56 0 .57.2 1.12.71 1.4.65-.07.68-.79.82-1.26.09-.25.29-.39.55-.39.22.14.4.3.28.67-.53.81.65 1.55-.07 2.31zm6.53-6.41c.16.1.3.17.16.42-.11.1-.25.19-.33.44-.25.39-.16.88-.84 1.1-.3.07-.63.12-.8-.16-.14-.34.01-.69.08-1.02.3-.64 1.02-1.08 1.73-.78zm-3.32-2.46c.89-.88 1.1.97 2.13.72.72.34-.2.54-.21.84-.23.51-.44 1.22-1.02.88-.31-.23-.4-.59-.55-.9-.23-.47-.67-1.02-.35-1.54zm-1.98-1.73c.02-.16.2-.29.37-.3.38.13.45.27.46.84.09.75.05 1.46.33 2.22.06.62.6.83.5 1.17-.18.54-1 .08-1.2-.22-.42-.44-.34-1.29-.08-1.83.36-.68-.44-1.16-.38-1.88zm.26 8.15c-.23-.19-.6-.42-.6-.75-.33-.73-.41-1.58-.14-2.37-.33-.95-.02-.9.03-.96.29.13.37.48.59.7.32.14.68.37.86.68-.87.65-.42 1.56-.39 2.33-.12.14-.08.46-.35.37zm1.34 3.06c-.65.28-.93-.09-1.07-.3-.21-.45.15-.81.3-1.18.2-.22.26-.48.44-.74.18-.3.16-.61.24-.92.1-.41.54-.48.82-.67.27-.06.57-.03.78.16.11.23-.12.25-.2.37-.21.47.26.77.22 1.24-.11.22-.38.21-.55.36-.82.3-.28 1.36-.98 1.68zm3.43-1.38c-.23.06-.4.1-.6.34-.37.34-.69.79-1.18.74-.18-.07-.43-.26-.33-.52.24-.49.78-.42 1.02-.92.22-.27.04-.63-.06-.9-.1-.14-.06-.4.06-.5.17-.02.27-.21.38-.34.11-.03.19-.13.21.14.01.9 1.19.99 1.23 1.82-.08.45-.48.13-.73.14zm4.89-2.75c.34-.17.79-.25 1.16.14-.17.51-.44.37-.82.4-.84-.18-.67-.39-.34-.54zm.61 3.41c-.8.89-1.53 1.07-2.49 1.12-.45-.08-.79-.27-.69-.9.25-.47.79-.59 1.28-.64.54.06.48.26 1.32.25.66-.38-.5-.44 0-.92.25-.26.65-.3.98-.2.54.22.91.62.96 1.16-.17.47-.89-.06-1.36.13z"/><g><path class="st1" d="M4.92 73.49h94.16V74H4.92z"/></g></svg>