<svg xmlns="http://www.w3.org/2000/svg" viewBox="0 0 43.6 43.6"><path fill="#77777A" d="M43.5 31.3c0-.1 0-.2-.1-.3l-6.6-13.2c1.1-.6 1.9-1.8 1.9-3.2 0-.7-.5-1.2-1.2-1.2s-1.2.5-1.2 1.2-.5 1.2-1.2 1.2-1.2-.5-1.2-1.2-.5-1.2-1.2-1.2h-7.5c-.4-1-1.2-1.8-2.2-2.2V9l2-2.1c.4-.4.4-.9.2-1.4L22.8.7c-.4-.9-1.7-.9-2.2 0l-2.4 4.8c-.2.5-.1 1 .2 1.4L20.6 9v2.1c-1 .4-1.8 1.2-2.2 2.2h-7.5c-.7 0-1.2.5-1.2 1.2s-.5 1.2-1.2 1.2-1.2-.5-1.2-1.2-.5-1.2-1.2-1.2-1.2.5-1.2 1.2c0 1.4.8 2.6 1.9 3.2L.1 31c-.2.4-.1.9.1 1.3 2 2.6 4.9 4.1 8.2 4.1s6.2-1.5 8.2-4.1c.3-.3.3-.9.1-1.3l-6.6-13.2c.8-.4 1.4-1.1 1.7-2h6.5c.4 1 1.2 1.8 2.2 2.2v19.6h-2.4c-.3 0-.6.1-.9.3l-3.6 3.6c-.8.8-.2 2.1.8 2.1H29c1.1 0 1.6-1.3.9-2.1l-3.6-3.6c-.2-.2-.5-.3-.9-.3H23V18c1-.4 1.8-1.2 2.2-2.2h6.5c.3.9.9 1.5 1.7 2L26.7 31c-.2.4-.1.9.1 1.3 2 2.6 4.9 4.1 8.2 4.1s6.2-1.5 8.2-4.1c.3-.3.4-.7.3-1zM8.4 33.9c-1.5 0-3-.4-4.2-1.2h8.4c-1.2.8-2.7 1.2-4.2 1.2zm5.4-3.6H3.1l5.3-10.6 5.4 10.6zm8-26.4l1 1.9-1 1-1-1 1-1.9zM24.9 40l1.2 1.2h-8.7l1.2-1.2h6.3zm-3.1-24.2c-.7 0-1.2-.5-1.2-1.2s.5-1.2 1.2-1.2 1.2.5 1.2 1.2c0 .6-.6 1.2-1.2 1.2zm13.3 18.1c-1.5 0-3-.4-4.2-1.2h8.4c-1.3.8-2.7 1.2-4.2 1.2zm-5.4-3.6L35 19.7l5.3 10.6H29.7z"/></svg>