<svg xmlns="http://www.w3.org/2000/svg" viewBox="0 0 53.1 18.9"><path fill="#77777A" d="M53.1 5.6H48C46.5 2.3 43.2 0 39.3 0c-3.6 0-6.7 2-8.3 4.9-2.9-2.4-5.9-2.4-8.9 0C20.5 2 17.4 0 13.8 0 10 0 6.7 2.3 5.2 5.6H0v2.9h4.4c0 .3-.1.7-.1 1 0 5.2 4.2 9.5 9.5 9.5s9.5-4.2 9.5-9.5c0-.8-.1-1.5-.3-2.2 2.2-1.5 4.8-1.7 7.1 0-.2.7-.3 1.5-.3 2.2 0 5.2 4.2 9.5 9.5 9.5 5.2 0 9.5-4.2 9.5-9.5 0-.3 0-.7-.1-1h4.4V5.6zM13.8 16.3c-3.8 0-6.9-3.1-6.9-6.9 0-3.8 3.1-6.9 6.9-6.9 3.8 0 6.9 3.1 6.9 6.9 0 3.9-3.1 6.9-6.9 6.9zm25.5 0c-3.8 0-6.9-3.1-6.9-6.9 0-3.8 3.1-6.9 6.9-6.9 3.8 0 6.9 3.1 6.9 6.9 0 3.9-3.1 6.9-6.9 6.9z"/></svg>