<svg xmlns="http://www.w3.org/2000/svg" viewBox="0 0 38.9 45.7"><g fill="#77777A"><path d="M15.5 6c1 0 1.9-.8 1.9-1.9 0-1-.8-1.9-1.9-1.9-1 0-1.9.8-1.9 1.9.1 1.1.9 1.9 1.9 1.9zM20.3 28.2h-2.5c-.5 0-.9.4-.9.9v.9c0 .5.4.9.9.9h2.5c.5 0 .9-.4.9-.9v-.9c0-.5-.4-.9-.9-.9zM26.5 32.9H24c-.5 0-.9.4-.9.9v.9c0 .5.4.9.9.9h2.5c.5 0 .9-.4.9-.9v-.9c0-.5-.4-.9-.9-.9zM26.5 37.6H24c-.5 0-.9.4-.9.9v.9c0 .5.4.9.9.9h2.5c.5 0 .9-.4.9-.9v-.9c0-.5-.4-.9-.9-.9zM20.3 37.6h-2.5c-.5 0-.9.4-.9.9v.9c0 .5.4.9.9.9h2.5c.5 0 .9-.4.9-.9v-.9c0-.5-.4-.9-.9-.9zM20.3 32.9h-2.5c-.5 0-.9.4-.9.9v.9c0 .5.4.9.9.9h2.5c.5 0 .9-.4.9-.9v-.9c0-.5-.4-.9-.9-.9zM26.5 28.2H24c-.5 0-.9.4-.9.9v.9c0 .5.4.9.9.9h2.5c.5 0 .9-.4.9-.9v-.9c0-.5-.4-.9-.9-.9zM32.8 20.2H17.7c-.5 0-.9.4-.9.9v4c0 .5.4.9.9.9h15.1c.5 0 .9-.4.9-.9v-4c0-.5-.4-.9-.9-.9zM32.8 37.6h-2.5c-.5 0-.9.4-.9.9v.9c0 .5.4.9.9.9h2.5c.5 0 .9-.4.9-.9v-.9c0-.5-.4-.9-.9-.9zM32.8 28.2h-2.5c-.5 0-.9.4-.9.9v.9c0 .5.4.9.9.9h2.5c.5 0 .9-.4.9-.9v-.9c0-.5-.4-.9-.9-.9zM32.8 32.9h-2.5c-.5 0-.9.4-.9.9v.9c0 .5.4.9.9.9h2.5c.5 0 .9-.4.9-.9v-.9c0-.5-.4-.9-.9-.9z"/><path d="M34.7 15.3h-3.5V7.4c0-2.8-2.3-5.2-5.2-5.2h-5.5C20 1.1 19 .3 17.7 0h-.1c-.2 0-.3.1-.3.3 0 .1.1.2.2.3 1.3.7 2.2 2.1 2.2 3.7h3.8c2.3 0 4.2 1.9 4.2 4.2v1.3c0 .7-.6 1.3-1.3 1.3H4.8c-.7 0-1.3-.6-1.3-1.3V8.5c0-2.3 1.9-4.2 4.2-4.2h3.5c0-.7.2-1.4.5-2.1H5.1C2.3 2.2 0 4.6 0 7.4v26.5C0 36.7 2.3 39 5.1 39H11v2.5c0 2.3 1.9 4.2 4.2 4.2h19.4c2.3 0 4.2-1.9 4.2-4.2V19.6c.1-2.4-1.7-4.3-4.1-4.3zm1.2 26c0 .8-.6 1.4-1.4 1.4h-19c-.8 0-1.4-.6-1.4-1.4V19.7c0-.8.6-1.4 1.4-1.4h19.1c.8 0 1.4.6 1.4 1.4v21.6z"/></g></svg>