<svg xmlns="http://www.w3.org/2000/svg" viewBox="0 0 42 42"><g fill="#77777A"><path d="M27.4 33.9c0-3.6 3-6.6 6.6-6.6 3.6 0 6.6 2.9 6.6 6.6 0 1.1-.3 2.2-.8 3.1l1.7 1.7c.7.7.7 2 0 2.7-.7.7-2 .7-2.7 0L37 39.7c-.9.5-2 .8-3.1.8-3.6 0-6.5-2.9-6.5-6.6zm6.5-2.7c-1.5 0-2.7 1.2-2.7 2.7 0 1.5 1.2 2.7 2.7 2.7.8 0 1.5-.3 1.9-.8.5-.5.8-1.2.8-1.9.1-1.5-1.1-2.7-2.7-2.7z"/><path d="M22.2 21.3V19h-2.3v2.3h2.3zm2.4-13.7v-.2c0-2-1.6-3.6-3.6-3.6s-3.6 1.6-3.6 3.6v.2h7.2zM7.2 11.5c-.9 0-1.8.4-2.4 1-.6.6-1 1.5-1 2.4v3.3H16c.1-1.7 1.5-3.1 3.2-3.1h3.6c1.7 0 3.1 1.4 3.2 3.1h12.2v-3.3c0-1.9-1.5-3.4-3.4-3.4H7.2zm6.4-4.1C13.6 3.3 16.9 0 21 0c4.1 0 7.4 3.3 7.4 7.4v.2h6.4c4 0 7.2 3.3 7.2 7.2V25c0 1.1-.9 1.9-1.9 1.9s-1.9-.8-1.9-1.9v-3H26c-.1 1.7-1.5 3.1-3.2 3.1h-3.6c-1.7 0-3.1-1.4-3.2-3.1H3.8v12.8c0 1.9 1.5 3.4 3.4 3.4H25c1 0 1.9.9 1.9 1.9 0 1.1-.9 1.9-1.9 1.9H7.2c-4 0-7.2-3.2-7.2-7.2V14.9c0-4 3.2-7.2 7.2-7.2h6.4v-.3z"/></g></svg>