<svg xmlns="http://www.w3.org/2000/svg" viewBox="0 0 47.2 48.4"><g fill="#77777A"><path d="M20.9 29.7c-5-.1-9.1-3.6-10-8.4-.3-1.9-.1-3.7.5-5.4-.2.1-.5.2-.7.3-.1 0-.1.1-.1.1-.3.1-.5.3-.8.4-.1 0-.1.1-.2.1-.3.2-.5.4-.8.6-.1 0-.1.1-.2.1-.2.2-.4.4-.6.7l-.1.1c-.2.3-.4.6-.6.8 0 .1-.1.1-.1.2-.2.3-.3.6-.4 1-1.4 3.9.6 8.2 4.5 9.6.6.2 1.2.3 1.8.4l2.2 4.7 2.8 1-1 2.8 2.8 1L19 43l2.8 1-.9 2.6 4.9 1.8 1.9-5.2-2.6-5.6-3.7-8c-.1.1-.3.1-.5.1z"/><path d="M46.1 31.4l-5.8-4L29.5 20c0-.7 0-1.4-.1-2-.1-.3-.1-.5-.2-.8 0-.1-.1-.2-.1-.3-.1-.2-.1-.3-.2-.5 0-.1-.1-.2-.1-.3-.1-.2-.1-.3-.2-.4 0-.1-.1-.2-.2-.3-.1-.1-.2-.3-.2-.4-.1-.1-.1-.2-.2-.3-.1-.1-.2-.3-.3-.4-.1-.1-.1-.2-.2-.3-.1-.1-.2-.2-.3-.4l-.2-.2c-.1-.1-.3-.2-.4-.4l-.2-.2c-.2-.2-.4-.3-.6-.5-.2-.1-.4-.3-.6-.4-.1.1-.2.1-.2 0-.2-.1-.3-.2-.5-.2-.1 0-.2-.1-.3-.1-.1-.1-.3-.1-.4-.2-.1 0-.2-.1-.3-.1-.2 0-.3-.1-.5-.1-.1 3.1-1.4 6-3.6 8.2-.5.5-1.1.7-1.8.7s-1.3-.3-1.8-.7c-1-1-1-2.6 0-3.5 1.2-1.2 1.9-2.7 2.1-4.4-3.8 1.4-6.1 5.4-5.4 9.5.7 4.1 4.3 7 8.3 7H21.7c.3 0 .5-.1.8-.1.7-.1 1.3-.3 2-.6l4.9 3.4 3.4-.6.6 3.4 3.4-.6.6 3.4 3.4-.6.6 3.1 5.8-1.1-1.1-6.3z"/><path d="M17 17c-.3.3-.3.9 0 1.2.2.2.4.2.6.2.2 0 .4-.1.6-.2 2.5-2.5 3.4-5.8 3-9-.3-2.2-1.3-4.4-3-6.1C16.1 1 13.4 0 10.7 0c-.6 0-1.2.1-1.8.2h-.2c-.2 0-.3.1-.5.1s-.4.1-.6.1h-.1c-1.1.4-2.2 1-3.2 1.8-.4.3-.8.6-1.1 1-4.2 4.1-4.2 10.9-.1 15 .7.7 1.4 1.2 2.2 1.7v-.1c.1-.4.3-.8.6-1.2.1-.1.1-.1.1-.2-.6-.4-1.2-.8-1.7-1.4C.8 13.5.8 7.8 4.3 4.3c.5-.5 1.1-1 1.7-1.3.3-.2.6-.4 1-.5.1 0 .2-.1.2-.1.3-.1.7-.3 1-.4h.1c.3-.1.6-.1 1-.2h.3c.3 0 .7-.1 1.1-.1h.7c.3 0 .5.1.8.1 1.4.2 2.8.8 3.9 1.7.3.2.6.5.9.8 1.4 1.4 2.2 3.2 2.5 5 .5 2.7-.4 5.6-2.5 7.7z"/></g></svg>